<svg width="26" height="26" viewBox="0 0 26 26" fill="none" xmlns="http://www.w3.org/2000/svg">
<rect width="26" height="26" rx="13" fill="#FDBF26"/>
<path fill-rule="evenodd" clip-rule="evenodd" d="M13 7C13.2076 7 13.4066 7.08245 13.5534 7.22922C13.7002 7.37599 13.7826 7.57505 13.7826 7.78261V12.2174H18.2174C18.425 12.2174 18.624 12.2998 18.7708 12.4466C18.9175 12.5934 19 12.7924 19 13C19 13.2076 18.9175 13.4066 18.7708 13.5534C18.624 13.7002 18.425 13.7826 18.2174 13.7826H13.7826V18.2174C13.7826 18.425 13.7002 18.624 13.5534 18.7708C13.4066 18.9175 13.2076 19 13 19C12.7924 19 12.5934 18.9175 12.4466 18.7708C12.2998 18.624 12.2174 18.425 12.2174 18.2174V13.7826H7.78261C7.57505 13.7826 7.37599 13.7002 7.22922 13.5534C7.08245 13.4066 7 13.2076 7 13C7 12.7924 7.08245 12.5934 7.22922 12.4466C7.37599 12.2998 7.57505 12.2174 7.78261 12.2174H12.2174V7.78261C12.2174 7.57505 12.2998 7.37599 12.4466 7.22922C12.5934 7.08245 12.7924 7 13 7Z" fill="black"/>
</svg>
