<svg width="97" height="22" viewBox="0 0 97 22" fill="none" xmlns="http://www.w3.org/2000/svg">
<circle cx="8.5638" cy="10.9356" r="8.5638" fill="#E28800"/>
<path d="M8.30573 17.1277C7.11527 17.1277 6.07512 16.8712 5.18528 16.358C4.29544 15.8448 3.60401 15.1321 3.11099 14.2198C2.61797 13.296 2.37146 12.2241 2.37146 11.0039C2.37146 9.77226 2.62398 8.68889 3.12903 7.75378C3.6461 6.80726 4.3736 6.07171 5.31154 5.54713C6.26151 5.01115 7.38583 4.74316 8.68452 4.74316C10.1636 4.74316 12.0449 5.00667 13.175 6.58767C14.3051 8.16868 14.3051 9.74969 14.3051 9.74969H11.7258C11.7258 9.74969 11.4623 8.30044 11.067 7.90773C10.6718 7.51503 10.4083 6.85118 8.68452 6.76164C6.96078 6.67211 6.44789 7.14367 5.76247 7.90773C5.07706 8.66038 4.73435 9.69813 4.73435 11.021C4.73435 12.3438 5.07104 13.3702 5.74444 14.1C6.42985 14.8185 7.35577 15.1777 8.52218 15.1777C9.66455 15.1777 10.54 14.6296 11.067 14.1C11.594 13.5705 11.7258 13.307 11.7258 13.307L8.97311 13.2964V11.199H14.4925V18.8405H12.3641V15.415C11.9553 15.9852 11.2639 16.358 10.6506 16.6659C10.0373 16.9738 9.2557 17.1277 8.30573 17.1277Z" fill="white"/>
<path d="M26.4318 17.2055C25.3014 17.2055 24.3137 16.9486 23.4688 16.4348C22.6238 15.921 21.9673 15.2073 21.4991 14.2938C21.0309 13.3689 20.7969 12.2956 20.7969 11.0738C20.7969 9.84066 21.0367 8.75591 21.5162 7.81961C22.0072 6.87188 22.698 6.13539 23.5887 5.61014C24.4907 5.07348 25.5583 4.80515 26.7915 4.80515C28.196 4.80515 29.3607 5.14199 30.2856 5.81568C31.2104 6.48936 31.8099 7.41996 32.084 8.60748H29.6347C29.452 8.04797 29.1209 7.61407 28.6413 7.30578C28.1617 6.98606 27.5451 6.8262 26.7915 6.8262C25.5926 6.8262 24.6677 7.20872 24.0169 7.97375C23.366 8.72737 23.0406 9.76644 23.0406 11.091C23.0406 12.4155 23.3603 13.4432 23.9997 14.1739C24.6506 14.8933 25.5298 15.253 26.6374 15.253C27.7221 15.253 28.5385 14.9618 29.0866 14.3795C29.6461 13.7857 29.983 13.0093 30.0972 12.0501H27.0656V10.4059H32.3066V17H30.2856L30.1143 15.4243C29.7261 15.9952 29.2408 16.4348 28.6584 16.7431C28.0761 17.0514 27.3339 17.2055 26.4318 17.2055ZM38.0005 17.2055C37.1441 17.2055 36.3848 17.0228 35.7225 16.6574C35.0602 16.2921 34.5407 15.7782 34.1639 15.116C33.7871 14.4537 33.5987 13.6887 33.5987 12.8209C33.5987 11.9416 33.7814 11.1595 34.1468 10.4744C34.5236 9.78928 35.0374 9.25832 35.6882 8.88152C36.3505 8.49329 37.127 8.29918 38.0176 8.29918C38.8511 8.29918 39.5876 8.48187 40.2271 8.84726C40.8665 9.21265 41.3632 9.71506 41.7172 10.3545C42.0825 10.9825 42.2652 11.6847 42.2652 12.4612C42.2652 12.5868 42.2595 12.7181 42.2481 12.8551C42.2481 12.9921 42.2424 13.1349 42.231 13.2833H35.7739C35.8196 13.9456 36.0479 14.4651 36.459 14.8419C36.8815 15.2187 37.3896 15.4071 37.9833 15.4071C38.4287 15.4071 38.7998 15.3101 39.0966 15.116C39.4049 14.9104 39.6333 14.6478 39.7817 14.3281H42.0083C41.8485 14.8648 41.5801 15.3558 41.2033 15.8011C40.8379 16.235 40.3812 16.5775 39.8331 16.8287C39.2965 17.0799 38.6856 17.2055 38.0005 17.2055ZM38.0176 10.0804C37.4809 10.0804 37.0071 10.2346 36.596 10.5429C36.1849 10.8398 35.9223 11.2965 35.8081 11.9131H40.0387C40.0044 11.3536 39.7989 10.9083 39.4221 10.5771C39.0453 10.246 38.5771 10.0804 38.0176 10.0804ZM47.23 17C46.3393 17 45.6257 16.7831 45.089 16.3492C44.5524 15.9153 44.284 15.1445 44.284 14.0369V10.3374H42.8282V8.50471H44.284L44.5409 6.22674H46.4764V8.50471H48.7715V10.3374H46.4764V14.0541C46.4764 14.4651 46.562 14.7506 46.7333 14.9104C46.916 15.0589 47.2243 15.1331 47.6582 15.1331H48.7201V17H47.23ZM55.8092 17.2055C54.6102 17.2055 53.5597 16.9429 52.6577 16.4177C51.767 15.8924 51.0648 15.1673 50.551 14.2425C50.0486 13.3061 49.7974 12.2271 49.7974 11.0053C49.7974 9.78357 50.0486 8.71024 50.551 7.78535C51.0648 6.84904 51.767 6.11826 52.6577 5.59302C53.5597 5.06777 54.6102 4.80515 55.8092 4.80515C56.9967 4.80515 58.0415 5.06777 58.9435 5.59302C59.8456 6.11826 60.5478 6.84904 61.0502 7.78535C61.5526 8.71024 61.8038 9.78357 61.8038 11.0053C61.8038 12.2271 61.5526 13.3061 61.0502 14.2425C60.5478 15.1673 59.8456 15.8924 58.9435 16.4177C58.0415 16.9429 56.9967 17.2055 55.8092 17.2055ZM55.8092 15.2359C56.951 15.2359 57.8588 14.859 58.5324 14.1054C59.2176 13.3518 59.5601 12.3185 59.5601 11.0053C59.5601 9.69222 59.2176 8.65886 58.5324 7.90524C57.8588 7.15163 56.951 6.77482 55.8092 6.77482C54.6673 6.77482 53.7538 7.15163 53.0687 7.90524C52.3836 8.65886 52.0411 9.69222 52.0411 11.0053C52.0411 12.3185 52.3836 13.3518 53.0687 14.1054C53.7538 14.859 54.6673 15.2359 55.8092 15.2359ZM63.1743 17V8.50471H65.1268L65.3324 10.0976C65.6407 9.54949 66.0574 9.11559 66.5827 8.79588C67.1194 8.46474 67.7474 8.29918 68.4667 8.29918V10.6114H67.8501C67.3706 10.6114 66.9424 10.6856 66.5656 10.8341C66.1888 10.9825 65.8919 11.2394 65.6749 11.6048C65.4694 11.9702 65.3666 12.4783 65.3666 13.1292V17H63.1743ZM73.2059 17.2055C72.4066 17.2055 71.6929 17.0114 71.0649 16.6232C70.4369 16.235 69.9402 15.704 69.5748 15.0303C69.2094 14.3566 69.0267 13.5916 69.0267 12.7352C69.0267 11.8788 69.2094 11.1195 69.5748 10.4573C69.9402 9.78357 70.4369 9.25832 71.0649 8.88152C71.6929 8.49329 72.4066 8.29918 73.2059 8.29918C73.8453 8.29918 74.4048 8.41907 74.8844 8.65886C75.3639 8.89864 75.7522 9.23549 76.049 9.66939V4.66813H78.2414V17H76.2888L76.049 15.7839C75.775 16.1607 75.4096 16.4919 74.9529 16.7773C74.5076 17.0628 73.9252 17.2055 73.2059 17.2055ZM73.6683 15.2872C74.3762 15.2872 74.9529 15.0532 75.3982 14.585C75.8549 14.1054 76.0833 13.4946 76.0833 12.7524C76.0833 12.0102 75.8549 11.405 75.3982 10.9368C74.9529 10.4573 74.3762 10.2175 73.6683 10.2175C72.9718 10.2175 72.3951 10.4515 71.9384 10.9197C71.4817 11.3879 71.2533 11.993 71.2533 12.7352C71.2533 13.4774 71.4817 14.0883 71.9384 14.5679C72.3951 15.0475 72.9718 15.2872 73.6683 15.2872ZM84.0878 17.2055C83.2314 17.2055 82.4721 17.0228 81.8098 16.6574C81.1475 16.2921 80.628 15.7782 80.2512 15.116C79.8744 14.4537 79.686 13.6887 79.686 12.8209C79.686 11.9416 79.8687 11.1595 80.2341 10.4744C80.6109 9.78928 81.1247 9.25832 81.7755 8.88152C82.4378 8.49329 83.2143 8.29918 84.1049 8.29918C84.9384 8.29918 85.6749 8.48187 86.3144 8.84726C86.9538 9.21265 87.4505 9.71506 87.8045 10.3545C88.1698 10.9825 88.3525 11.6847 88.3525 12.4612C88.3525 12.5868 88.3468 12.7181 88.3354 12.8551C88.3354 12.9921 88.3297 13.1349 88.3183 13.2833H81.8612C81.9069 13.9456 82.1352 14.4651 82.5463 14.8419C82.9688 15.2187 83.4769 15.4071 84.0706 15.4071C84.516 15.4071 84.8871 15.3101 85.1839 15.116C85.4922 14.9104 85.7206 14.6478 85.869 14.3281H88.0956C87.9358 14.8648 87.6674 15.3558 87.2906 15.8011C86.9252 16.235 86.4685 16.5775 85.9204 16.8287C85.3838 17.0799 84.7729 17.2055 84.0878 17.2055ZM84.1049 10.0804C83.5682 10.0804 83.0944 10.2346 82.6833 10.5429C82.2722 10.8398 82.0096 11.2965 81.8954 11.9131H86.126C86.0917 11.3536 85.8862 10.9083 85.5094 10.5771C85.1326 10.246 84.6644 10.0804 84.1049 10.0804ZM89.6826 17V8.50471H91.6352L91.8407 10.0976C92.149 9.54949 92.5658 9.11559 93.091 8.79588C93.6277 8.46474 94.2557 8.29918 94.975 8.29918V10.6114H94.3584C93.8789 10.6114 93.4507 10.6856 93.0739 10.8341C92.6971 10.9825 92.4002 11.2394 92.1832 11.6048C91.9777 11.9702 91.8749 12.4783 91.8749 13.1292V17H89.6826Z" fill="black"/>
</svg>
