<svg width="9" height="16" viewBox="0 0 9 16" fill="none" xmlns="http://www.w3.org/2000/svg">
<path fill-rule="evenodd" clip-rule="evenodd" d="M8.66999 15.17C8.45905 15.3807 8.17311 15.499 7.87499 15.499C7.57686 15.499 7.29092 15.3807 7.07999 15.17L0.704986 8.79501C0.494311 8.58408 0.375977 8.29814 0.375977 8.00001C0.375977 7.70189 0.494311 7.41595 0.704986 7.20501L7.07999 0.830014C7.29325 0.631294 7.57532 0.523109 7.86677 0.528251C8.15822 0.533394 8.4363 0.651462 8.64242 0.857581C8.84854 1.0637 8.96661 1.34178 8.97175 1.63323C8.97689 1.92468 8.86871 2.20675 8.66999 2.42001L3.08999 8.00001L8.66999 13.58C8.88066 13.791 8.999 14.0769 8.999 14.375C8.999 14.6731 8.88066 14.9591 8.66999 15.17Z" fill="black"/>
</svg>
