<svg width="24" height="24" viewBox="0 0 24 24" fill="none" xmlns="http://www.w3.org/2000/svg">
<path d="M9.03601 7.97601C8.89384 7.84353 8.70579 7.77141 8.51149 7.77484C8.31719 7.77827 8.1318 7.85698 7.99439 7.99439C7.85698 8.1318 7.77827 8.31719 7.77484 8.51149C7.77141 8.70579 7.84353 8.89384 7.97601 9.03601L10.939 12L7.97601 14.963C7.90233 15.0317 7.84322 15.1145 7.80223 15.2065C7.76124 15.2985 7.7392 15.3978 7.73742 15.4985C7.73564 15.5992 7.75417 15.6992 7.79189 15.7926C7.82961 15.886 7.88576 15.9708 7.95697 16.0421C8.02819 16.1133 8.11303 16.1694 8.20642 16.2071C8.2998 16.2449 8.39983 16.2634 8.50054 16.2616C8.60124 16.2598 8.70055 16.2378 8.79255 16.1968C8.88455 16.1558 8.96735 16.0967 9.03601 16.023L12 13.06L14.963 16.024C15.1044 16.1607 15.2938 16.2364 15.4905 16.2348C15.6871 16.2332 15.8753 16.1544 16.0144 16.0154C16.1535 15.8764 16.2325 15.6883 16.2343 15.4917C16.2361 15.295 16.1606 15.1055 16.024 14.964L13.061 12L16.024 9.03601C16.0977 8.96735 16.1568 8.88455 16.1978 8.79255C16.2388 8.70055 16.2608 8.60124 16.2626 8.50054C16.2644 8.39983 16.2459 8.2998 16.2081 8.20642C16.1704 8.11303 16.1143 8.02819 16.0431 7.95697C15.9718 7.88576 15.887 7.82961 15.7936 7.79189C15.7002 7.75417 15.6002 7.73564 15.4995 7.73742C15.3988 7.7392 15.2995 7.76124 15.2075 7.80223C15.1155 7.84322 15.0327 7.90233 14.964 7.97601L12 10.939L9.03601 7.97601Z" fill="black"/>
<path fill-rule="evenodd" clip-rule="evenodd" d="M12 1C5.925 1 1 5.925 1 12C1 18.075 5.925 23 12 23C18.075 23 23 18.075 23 12C23 5.925 18.075 1 12 1ZM2.5 12C2.5 9.48044 3.50089 7.06408 5.28249 5.28249C7.06408 3.50089 9.48044 2.5 12 2.5C14.5196 2.5 16.9359 3.50089 18.7175 5.28249C20.4991 7.06408 21.5 9.48044 21.5 12C21.5 14.5196 20.4991 16.9359 18.7175 18.7175C16.9359 20.4991 14.5196 21.5 12 21.5C9.48044 21.5 7.06408 20.4991 5.28249 18.7175C3.50089 16.9359 2.5 14.5196 2.5 12Z" fill="black"/>
</svg>
