<svg width="20" height="20" viewBox="0 0 20 20" fill="none" xmlns="http://www.w3.org/2000/svg">
<path fill-rule="evenodd" clip-rule="evenodd" d="M0.579986 0.579986C0.790924 0.36931 1.07686 0.250976 1.37499 0.250976C1.67311 0.250976 1.95905 0.36931 2.16999 0.579986L9.99999 8.40999L17.83 0.579986C17.933 0.469456 18.0572 0.380802 18.1952 0.319314C18.3332 0.257826 18.4821 0.224764 18.6332 0.222099C18.7843 0.219434 18.9343 0.24722 19.0744 0.303802C19.2145 0.360383 19.3417 0.4446 19.4485 0.551428C19.5554 0.658257 19.6396 0.785507 19.6962 0.925589C19.7528 1.06567 19.7805 1.21572 19.7779 1.36677C19.7752 1.51782 19.7421 1.66679 19.6807 1.80479C19.6192 1.94279 19.5305 2.06699 19.42 2.16999L11.59 9.99999L19.42 17.83C19.5305 17.933 19.6192 18.0572 19.6807 18.1952C19.7421 18.3332 19.7752 18.4821 19.7779 18.6332C19.7805 18.7843 19.7528 18.9343 19.6962 19.0744C19.6396 19.2145 19.5554 19.3417 19.4485 19.4485C19.3417 19.5554 19.2145 19.6396 19.0744 19.6962C18.9343 19.7528 18.7843 19.7805 18.6332 19.7779C18.4821 19.7752 18.3332 19.7421 18.1952 19.6807C18.0572 19.6192 17.933 19.5305 17.83 19.42L9.99999 11.59L2.16999 19.42C1.95672 19.6187 1.67465 19.7269 1.3832 19.7217C1.09175 19.7166 0.813673 19.5985 0.607554 19.3924C0.401434 19.1863 0.283367 18.9082 0.278224 18.6168C0.273082 18.3253 0.381266 18.0432 0.579986 17.83L8.40999 9.99999L0.579986 2.16999C0.369311 1.95905 0.250977 1.67311 0.250977 1.37499C0.250977 1.07686 0.369311 0.790924 0.579986 0.579986Z" fill="black"/>
</svg>
