<svg width="20" height="20" viewBox="0 0 20 20" fill="none" xmlns="http://www.w3.org/2000/svg">
<path fill-rule="evenodd" clip-rule="evenodd" d="M10.596 0.0429959C9.295 -0.0490041 8.293 1.029 8.293 2.249V3.302C8.293 5.968 6.48 7.087 5.519 7.502C5.35193 7.57075 5.17576 7.61488 4.996 7.633C4.96632 7.19013 4.76947 6.77508 4.4453 6.47189C4.12113 6.1687 3.69386 6.00002 3.25 6H1.75C1.28587 6 0.840752 6.18437 0.512563 6.51256C0.184375 6.84075 0 7.28587 0 7.75V18.25C0 19.217 0.784 20 1.75 20H3.25C3.68475 20.0001 4.10395 19.8383 4.42597 19.5462C4.74799 19.2542 4.94977 18.8527 4.992 18.42C5.83 18.48 6.659 18.716 7.682 19.006L8.284 19.176C9.748 19.582 11.497 20 13.828 20C16.016 20 17.521 19.796 18.411 18.628C18.833 18.074 19.061 17.373 19.227 16.578C19.375 15.87 19.489 15.008 19.623 13.998L19.674 13.608C19.993 11.222 20.002 9.428 19.451 8.214C19.158 7.57 18.708 7.089 18.096 6.783C17.506 6.487 16.812 6.379 16.06 6.379H14.01L14.066 5.95C14.091 5.77 14.116 5.578 14.142 5.378C14.202 4.895 14.259 4.372 14.259 3.94C14.259 2.695 14.037 1.687 13.339 0.998996C12.655 0.323996 11.671 0.118996 10.596 0.0429959ZM5 16.918C6.059 16.982 7.079 17.273 8.118 17.57L8.686 17.73C10.092 18.12 11.692 18.5 13.828 18.5C16.105 18.5 16.832 18.226 17.218 17.719C17.434 17.436 17.606 17.001 17.758 16.271C17.894 15.621 18 14.821 18.137 13.794L18.187 13.41C18.507 11.01 18.44 9.615 18.085 8.835C17.925 8.483 17.71 8.267 17.425 8.124C17.12 7.971 16.685 7.879 16.06 7.879H13.69C13.009 7.879 12.397 7.309 12.479 6.551C12.505 6.308 12.544 6.014 12.584 5.717L12.654 5.19C12.714 4.708 12.759 4.269 12.759 3.94C12.759 2.815 12.546 2.323 12.286 2.067C12.011 1.797 11.512 1.612 10.491 1.539C10.14 1.515 9.793 1.813 9.793 2.249V3.302C9.793 6.852 7.305 8.365 6.113 8.879C5.741 9.039 5.359 9.111 5 9.139V16.919V16.918ZM1.75 18.5C1.6837 18.5 1.62011 18.4737 1.57322 18.4268C1.52634 18.3799 1.5 18.3163 1.5 18.25V7.75C1.5 7.68369 1.52634 7.6201 1.57322 7.57322C1.62011 7.52633 1.6837 7.5 1.75 7.5H3.25C3.3163 7.5 3.37989 7.52633 3.42678 7.57322C3.47366 7.6201 3.5 7.68369 3.5 7.75V18.25C3.5 18.3163 3.47366 18.3799 3.42678 18.4268C3.37989 18.4737 3.3163 18.5 3.25 18.5H1.75Z" fill="black"/>
</svg>
