<svg width="24" height="24" viewBox="0 0 24 24" fill="none" xmlns="http://www.w3.org/2000/svg">
<path fill-rule="evenodd" clip-rule="evenodd" d="M13.251 0.0989725C11.241 -0.130528 9.75 1.57197 9.75 3.37497V4.12497C9.75 6.11847 8.7795 7.31097 7.773 8.04597C7.281 8.40597 6.783 8.65047 6.396 8.80797C6.16524 8.4101 5.83398 8.07984 5.43541 7.85029C5.03684 7.62073 4.58495 7.49992 4.125 7.49997H2.625C1.92881 7.49997 1.26113 7.77653 0.768845 8.26882C0.276562 8.7611 0 9.42878 0 10.125L0 21.375C0 22.824 1.176 24 2.625 24H4.125C4.67722 24.0001 5.2154 23.826 5.66299 23.5026C6.11058 23.1792 6.44476 22.7228 6.618 22.1985C7.4055 22.311 8.2185 22.542 9.2055 22.821C9.4335 22.8855 9.6705 22.953 9.918 23.0205C11.649 23.5005 13.728 24 16.5 24C19.059 24 20.955 23.7705 22.083 22.29C22.6125 21.5955 22.8885 20.727 23.085 19.782C23.262 18.942 23.397 17.9175 23.5545 16.7325L23.6145 16.2735C23.9895 13.47 24.012 11.2965 23.3325 9.79947C22.9931 9.01774 22.3893 8.38047 21.627 7.99947C20.886 7.62747 20.0295 7.49997 19.125 7.49997H16.992L17.0145 7.33047C17.1195 6.55347 17.25 5.57547 17.25 4.87497C17.25 3.49197 17.0235 2.29647 16.266 1.42497C15.501 0.541472 14.3955 0.229472 13.251 0.0989725ZM6.75 19.95C7.8075 20.082 8.835 20.376 9.858 20.667L10.5195 20.8545C12.1635 21.312 14.0205 21.7515 16.5 21.7515C19.191 21.7515 19.92 21.417 20.292 20.928C20.5125 20.6385 20.706 20.1705 20.883 19.323C21.0405 18.57 21.165 17.637 21.3255 16.428L21.3855 15.978C21.7605 13.155 21.669 11.5785 21.2835 10.7325C21.1577 10.4197 20.9219 10.1636 20.6205 10.0125C20.3085 9.85647 19.8405 9.75147 19.125 9.75147H16.5C15.471 9.75147 14.5575 8.88597 14.691 7.74747C14.7255 7.45947 14.766 7.16247 14.805 6.86847C14.9025 6.13647 15 5.41347 15 4.87647C15 3.66297 14.784 3.15147 14.568 2.90247C14.3625 2.66547 13.965 2.44647 12.996 2.33547C12.5355 2.28147 12 2.68947 12 3.37497V4.12497C12 7.00797 10.533 8.81697 9.1005 9.86247C8.38278 10.3837 7.59031 10.7934 6.75 11.0775V19.95ZM4.125 9.74997C4.22446 9.74997 4.31984 9.78948 4.39016 9.85981C4.46049 9.93013 4.5 10.0255 4.5 10.125V21.375C4.5 21.4744 4.46049 21.5698 4.39016 21.6401C4.31984 21.7105 4.22446 21.75 4.125 21.75H2.625C2.52554 21.75 2.43016 21.7105 2.35984 21.6401C2.28951 21.5698 2.25 21.4744 2.25 21.375V10.125C2.25 10.0255 2.28951 9.93013 2.35984 9.85981C2.43016 9.78948 2.52554 9.74997 2.625 9.74997H4.125Z" fill="black"/>
</svg>
