<svg width="24" height="24" viewBox="0 0 24 24" fill="none" xmlns="http://www.w3.org/2000/svg">
<path fill-rule="evenodd" clip-rule="evenodd" d="M1.63636 12C1.63636 9.25139 2.72824 6.61536 4.6718 4.6718C6.61536 2.72824 9.25139 1.63636 12 1.63636C14.7486 1.63636 17.3846 2.72824 19.3282 4.6718C21.2718 6.61536 22.3636 9.25139 22.3636 12C22.3636 14.7486 21.2718 17.3846 19.3282 19.3282C17.3846 21.2718 14.7486 22.3636 12 22.3636C9.25139 22.3636 6.61536 21.2718 4.6718 19.3282C2.72824 17.3846 1.63636 14.7486 1.63636 12ZM12 0C5.37273 0 0 5.37273 0 12C0 18.6273 5.37273 24 12 24C18.6273 24 24 18.6273 24 12C24 5.37273 18.6273 0 12 0ZM18.8182 12.8182C19.0352 12.8182 19.2433 12.732 19.3967 12.5785C19.5502 12.4251 19.6364 12.217 19.6364 12C19.6364 11.783 19.5502 11.5749 19.3967 11.4215C19.2433 11.268 19.0352 11.1818 18.8182 11.1818H5.18182C4.96482 11.1818 4.75672 11.268 4.60328 11.4215C4.44984 11.5749 4.36364 11.783 4.36364 12C4.36364 12.217 4.44984 12.4251 4.60328 12.5785C4.75672 12.732 4.96482 12.8182 5.18182 12.8182H18.8182Z" fill="#FDBF26"/>
</svg>
