<svg width="26" height="26" viewBox="0 0 26 26" fill="none" xmlns="http://www.w3.org/2000/svg">
<path d="M13.8124 8.39575C13.8124 8.18026 13.7268 7.9736 13.5744 7.82123C13.4221 7.66885 13.2154 7.58325 12.9999 7.58325C12.7844 7.58325 12.5778 7.66885 12.4254 7.82123C12.273 7.9736 12.1874 8.18026 12.1874 8.39575V12.1874H8.39575C8.18026 12.1874 7.9736 12.273 7.82123 12.4254C7.66885 12.5778 7.58325 12.7844 7.58325 12.9999C7.58325 13.2154 7.66885 13.4221 7.82123 13.5744C7.9736 13.7268 8.18026 13.8124 8.39575 13.8124H12.1874V17.6041C12.1874 17.8196 12.273 18.0262 12.4254 18.1786C12.5778 18.331 12.7844 18.4166 12.9999 18.4166C13.2154 18.4166 13.4221 18.331 13.5744 18.1786C13.7268 18.0262 13.8124 17.8196 13.8124 17.6041V13.8124H17.6041C17.8196 13.8124 18.0262 13.7268 18.1786 13.5744C18.331 13.4221 18.4166 13.2154 18.4166 12.9999C18.4166 12.7844 18.331 12.5778 18.1786 12.4254C18.0262 12.273 17.8196 12.1874 17.6041 12.1874H13.8124V8.39575Z" fill="#FDBF26"/>
<path fill-rule="evenodd" clip-rule="evenodd" d="M12.9999 1.08325C6.41867 1.08325 1.08325 6.41867 1.08325 12.9999C1.08325 19.5812 6.41867 24.9166 12.9999 24.9166C19.5812 24.9166 24.9166 19.5812 24.9166 12.9999C24.9166 6.41867 19.5812 1.08325 12.9999 1.08325ZM2.70825 12.9999C2.70825 10.2704 3.79255 7.65267 5.72261 5.72261C7.65267 3.79255 10.2704 2.70825 12.9999 2.70825C15.7294 2.70825 18.3472 3.79255 20.2772 5.72261C22.2073 7.65267 23.2916 10.2704 23.2916 12.9999C23.2916 15.7294 22.2073 18.3472 20.2772 20.2772C18.3472 22.2073 15.7294 23.2916 12.9999 23.2916C10.2704 23.2916 7.65267 22.2073 5.72261 20.2772C3.79255 18.3472 2.70825 15.7294 2.70825 12.9999Z" fill="#FDBF26"/>
</svg>
