<svg width="40" height="40" viewBox="0 0 40 40" fill="none" xmlns="http://www.w3.org/2000/svg">
<g clip-path="url(#clip0_675_1138)">
<path d="M38.4284 12.2159C37.4211 9.83418 35.9794 7.69527 34.143 5.85871C32.3066 4.02211 30.1679 2.58004 27.7863 1.57254C25.3201 0.529219 22.7008 0.00015625 20 0C17.3006 0 14.6814 0.528906 12.2153 1.57199C9.83367 2.5793 7.69492 4.02117 5.85844 5.85754C4.02195 7.69391 2.57996 9.83258 1.5725 12.2141C0.529219 14.6802 0.000156285 17.2994 3.46171e-08 19.9988C-0.000156215 22.6984 0.528633 25.3178 1.57164 27.7841C2.57887 30.1659 4.0207 32.3048 5.85707 34.1413C7.69344 35.9779 9.83215 37.42 12.2138 38.4275C14.68 39.4708 17.2993 39.9999 19.9998 40H20.0002C22.6996 40 25.3187 39.4711 27.7849 38.4281C30.1665 37.4207 32.3052 35.9789 34.1416 34.1425C35.9781 32.3062 37.4201 30.1675 38.4276 27.786C39.4709 25.3198 39.9999 22.7006 40 20.0012C40.0002 17.3016 39.4714 14.6823 38.4284 12.2159ZM20.0002 38.1378H19.999C15.1542 38.1375 10.5995 36.2506 7.17387 32.8246C3.74832 29.3986 1.86191 24.8437 1.86219 19.9989C1.86277 9.99832 9.99938 1.86223 20.0011 1.86223C24.8459 1.8625 29.4006 3.74941 32.8261 7.17539C36.2517 10.6014 38.1381 15.1563 38.1378 20.0011C38.1372 30.0017 30.0007 38.1378 20.0002 38.1378Z" fill="#FDBF26"/>
<path d="M26.2793 11.939V7.96435C26.1333 7.96435 25.9874 7.96407 25.8414 7.96439C25.49 7.96517 25.1386 7.96353 24.7871 7.96442C24.3585 7.96552 23.93 7.96263 23.5014 7.96446C23.1238 7.9661 22.746 7.96067 22.3685 7.96458C21.7985 7.97048 21.2574 7.99849 20.7107 8.17454C20.1837 8.34431 19.6889 8.64153 19.2674 8.99802C19.0234 9.20442 18.7975 9.42548 18.5929 9.67122C18.51 9.77329 18.4328 9.87942 18.3608 9.98919C18.1444 10.3185 17.9735 10.6807 17.8308 11.0648C17.7987 11.1512 17.7672 11.2379 17.7372 11.325C17.5171 11.9627 17.5098 12.6587 17.5098 13.3288C17.5098 13.4127 17.5098 13.4992 17.5098 13.5877C17.5098 14.9152 17.5098 16.685 17.5098 16.685H13.7208V21.06H17.3731H17.4708V32.0366H21.8067V20.9624L25.7422 21.0155L26.2728 16.7137L21.8262 16.7046V13.3843C21.8262 13.3843 21.8164 11.9682 23.0176 11.9487L26.2793 11.939Z" fill="#FDBF26"/>
</g>
<defs>
<clipPath id="clip0_675_1138">
<rect width="40" height="40" fill="white"/>
</clipPath>
</defs>
</svg>
