<svg width="40" height="40" viewBox="0 0 40 40" fill="none" xmlns="http://www.w3.org/2000/svg">
<g clip-path="url(#clip0_675_1148)">
<path d="M38.4284 12.2159C37.4211 9.83418 35.9794 7.69527 34.143 5.85871C32.3066 4.02211 30.1679 2.58004 27.7863 1.57254C25.3201 0.529219 22.7008 0.00015625 20 0C17.3006 0 14.6814 0.528906 12.2153 1.57199C9.83367 2.5793 7.69492 4.02117 5.85844 5.85754C4.02195 7.69391 2.57996 9.83258 1.5725 12.2141C0.529219 14.6802 0.000156285 17.2994 3.46171e-08 19.9988C-0.000156215 22.6984 0.528633 25.3178 1.57164 27.7841C2.57887 30.1659 4.0207 32.3048 5.85707 34.1413C7.69344 35.9779 9.83215 37.42 12.2138 38.4275C14.68 39.4708 17.2993 39.9999 19.9998 40H20.0002C22.6996 40 25.3187 39.4711 27.7849 38.4281C30.1665 37.4207 32.3052 35.9789 34.1416 34.1425C35.9781 32.3062 37.4201 30.1675 38.4276 27.786C39.4709 25.3198 39.9999 22.7006 40 20.0012C40.0002 17.3016 39.4714 14.6823 38.4284 12.2159ZM20.0002 38.1378H19.999C15.1542 38.1375 10.5995 36.2506 7.17387 32.8246C3.74832 29.3986 1.86191 24.8437 1.86219 19.9989C1.86277 9.99832 9.99938 1.86223 20.0011 1.86223C24.8459 1.8625 29.4006 3.74941 32.8261 7.17539C36.2517 10.6014 38.1381 15.1563 38.1378 20.0011C38.1372 30.0017 30.0007 38.1378 20.0002 38.1378Z" fill="#FDBF26"/>
<path d="M25.7331 15.535C26.448 15.535 27.0275 14.9555 27.0275 14.2407C27.0275 13.5258 26.448 12.9463 25.7331 12.9463C25.0182 12.9463 24.4387 13.5258 24.4387 14.2407C24.4387 14.9555 25.0182 15.535 25.7331 15.535Z" fill="#FDBF26"/>
<path d="M20 25.6215C16.9003 25.6215 14.3785 23.0997 14.3785 20C14.3785 16.9002 16.9003 14.3784 20 14.3784C23.0998 14.3784 25.6216 16.9003 25.6216 20C25.6216 23.0997 23.0998 25.6215 20 25.6215ZM20 16.1362C17.8696 16.1362 16.1363 17.8695 16.1363 20C16.1363 22.1304 17.8696 23.8637 20 23.8637C22.1305 23.8637 23.8638 22.1304 23.8638 20C23.8638 17.8695 22.1305 16.1362 20 16.1362Z" fill="#FDBF26"/>
<path d="M23.5798 31.2502H16.4202C12.3816 31.2502 9.09601 27.9646 9.09601 23.926V16.074C9.09601 12.0354 12.3816 8.74976 16.4202 8.74976H23.5797C27.6184 8.74976 30.9039 12.0354 30.9039 16.074V23.926C30.904 27.9646 27.6184 31.2502 23.5798 31.2502ZM16.4202 10.5076C13.3509 10.5076 10.8538 13.0046 10.8538 16.074V23.926C10.8538 26.9953 13.3509 29.4924 16.4202 29.4924H23.5797C26.6491 29.4924 29.1461 26.9953 29.1461 23.926V16.074C29.1461 13.0046 26.6491 10.5076 23.5797 10.5076H16.4202Z" fill="#FDBF26"/>
</g>
<defs>
<clipPath id="clip0_675_1148">
<rect width="40" height="40" fill="white"/>
</clipPath>
</defs>
</svg>
