<svg width="40" height="40" viewBox="0 0 40 40" fill="none" xmlns="http://www.w3.org/2000/svg">
<g clip-path="url(#clip0_675_1155)">
<path d="M38.4284 12.2159C37.4211 9.83418 35.9794 7.69527 34.143 5.85871C32.3066 4.02211 30.1679 2.58004 27.7863 1.57254C25.3201 0.529219 22.7008 0.00015625 20 0C17.3006 0 14.6814 0.528906 12.2153 1.57199C9.83367 2.5793 7.69492 4.02117 5.85844 5.85754C4.02195 7.69391 2.57996 9.83258 1.5725 12.2141C0.529219 14.6802 0.000156285 17.2994 3.46171e-08 19.9988C-0.000156215 22.6984 0.528633 25.3178 1.57164 27.7841C2.57887 30.1659 4.0207 32.3048 5.85707 34.1413C7.69344 35.9779 9.83215 37.42 12.2138 38.4275C14.68 39.4708 17.2993 39.9999 19.9998 40H20.0002C22.6996 40 25.3187 39.4711 27.7849 38.4281C30.1665 37.4207 32.3052 35.9789 34.1416 34.1425C35.9781 32.3062 37.4201 30.1675 38.4276 27.786C39.4709 25.3198 39.9999 22.7006 40 20.0012C40.0002 17.3016 39.4714 14.6823 38.4284 12.2159ZM20.0002 38.1378H19.999C15.1542 38.1375 10.5995 36.2506 7.17387 32.8246C3.74832 29.3986 1.86191 24.8437 1.86219 19.9989C1.86277 9.99832 9.99938 1.86223 20.0011 1.86223C24.8459 1.8625 29.4006 3.74941 32.8261 7.17539C36.2517 10.6014 38.1381 15.1563 38.1378 20.0011C38.1372 30.0017 30.0007 38.1378 20.0002 38.1378Z" fill="#FDBF26"/>
<path d="M24.4497 11.7122C22.1832 11.6455 19.9157 11.6297 17.6487 11.665C11.2308 11.7872 8.53765 11.6886 8.21437 16.6257C8.14461 18.7144 8.13953 20.7982 8.19926 22.8862C8.51949 28.2694 10.2464 28.1704 17.6487 28.3383C19.716 28.3705 21.7837 28.3602 23.8507 28.3075C29.0577 28.1641 31.4795 28.2907 31.801 22.8833C31.8606 20.7963 31.8555 18.7134 31.7858 16.6258C31.4638 11.6687 28.6713 11.8325 24.4497 11.7122ZM17.5942 23.0799C17.5817 20.8416 17.5828 18.6019 17.5976 16.3638C19.6792 17.4683 21.784 18.6056 23.884 19.7228C21.7858 20.8364 19.6799 21.9731 17.5942 23.0799Z" fill="#FDBF26"/>
</g>
<defs>
<clipPath id="clip0_675_1155">
<rect width="40" height="40" fill="white"/>
</clipPath>
</defs>
</svg>
