<svg width="20" height="24" viewBox="0 0 20 24" fill="none" xmlns="http://www.w3.org/2000/svg">
<path fill-rule="evenodd" clip-rule="evenodd" d="M15.304 5.19609C16.0007 5.89256 16.5533 6.71944 16.9303 7.62951C17.3073 8.53958 17.5014 9.51501 17.5014 10.5001C17.5014 11.4852 17.3073 12.4606 16.9303 13.3707C16.5533 14.2807 16.0007 15.1076 15.304 15.8041L10 21.1051L4.696 15.8026C3.99947 15.1061 3.44695 14.2792 3.06999 13.3691C2.69303 12.459 2.49902 11.4836 2.49902 10.4986C2.49902 9.51355 2.69303 8.53815 3.06999 7.62809C3.44695 6.71803 3.99947 5.89112 4.696 5.19459C5.39253 4.49806 6.21944 3.94554 7.1295 3.56858C8.03956 3.19162 9.01496 2.99761 10 2.99761C10.985 2.99761 11.9604 3.19162 12.8705 3.56858C13.7806 3.94554 14.6075 4.49806 15.304 5.19459V5.19609ZM16.894 17.3941C18.2576 16.0306 19.1863 14.2933 19.5626 12.4019C19.9389 10.5106 19.7458 8.55017 19.0079 6.76854C18.27 4.98691 17.0203 3.46412 15.4169 2.39274C13.8135 1.32136 11.9284 0.749512 10 0.749512C8.0716 0.749512 6.18651 1.32136 4.58311 2.39274C2.97971 3.46412 1.73003 4.98691 0.9921 6.76854C0.25417 8.55017 0.0611356 10.5106 0.437408 12.4019C0.813681 14.2933 1.74236 16.0306 3.106 17.3941L8.4085 22.6981C8.61745 22.9072 8.86556 23.073 9.13863 23.1862C9.41171 23.2994 9.70441 23.3576 10 23.3576C10.2956 23.3576 10.5883 23.2994 10.8614 23.1862C11.1345 23.073 11.3826 22.9072 11.5915 22.6981L16.894 17.3941ZM10 13.5001C10.7957 13.5001 11.5587 13.184 12.1213 12.6214C12.6839 12.0588 13 11.2957 13 10.5001C13 9.70444 12.6839 8.94138 12.1213 8.37877C11.5587 7.81616 10.7957 7.50009 10 7.50009C9.20435 7.50009 8.44129 7.81616 7.87868 8.37877C7.31607 8.94138 7 9.70444 7 10.5001C7 11.2957 7.31607 12.0588 7.87868 12.6214C8.44129 13.184 9.20435 13.5001 10 13.5001Z" fill="black"/>
</svg>
