<svg width="10" height="6" viewBox="0 0 10 6" fill="none" xmlns="http://www.w3.org/2000/svg">
<path fill-rule="evenodd" clip-rule="evenodd" d="M9.78003 0.220072C9.92048 0.360698 9.99937 0.551322 9.99937 0.750072C9.99937 0.948823 9.92048 1.13945 9.78003 1.28007L5.53003 5.53007C5.3894 5.67052 5.19878 5.74941 5.00003 5.74941C4.80128 5.74941 4.61065 5.67052 4.47003 5.53007L0.22003 1.28007C0.0875496 1.1379 0.0154264 0.949851 0.0188546 0.75555C0.0222829 0.561249 0.100995 0.375864 0.238408 0.238451C0.375821 0.101038 0.561206 0.0223258 0.755507 0.0188975C0.949808 0.0154693 1.13785 0.0875923 1.28003 0.220072L5.00003 3.94007L8.72003 0.220072C8.86065 0.0796218 9.05128 0.000732422 9.25003 0.000732422C9.44878 0.000732422 9.6394 0.0796218 9.78003 0.220072Z" fill="black"/>
</svg>
