<svg width="16" height="16" viewBox="0 0 16 16" fill="none" xmlns="http://www.w3.org/2000/svg">
<path fill-rule="evenodd" clip-rule="evenodd" d="M8 3.125C6.70707 3.125 5.46709 3.63861 4.55285 4.55285C3.63861 5.46709 3.125 6.70707 3.125 8C3.125 9.29293 3.63861 10.5329 4.55285 11.4471C5.46709 12.3614 6.70707 12.875 8 12.875C9.29293 12.875 10.5329 12.3614 11.4471 11.4471C12.3614 10.5329 12.875 9.29293 12.875 8C12.875 6.70707 12.3614 5.46709 11.4471 4.55285C10.5329 3.63861 9.29293 3.125 8 3.125ZM2 8C2 6.4087 2.63214 4.88258 3.75736 3.75736C4.88258 2.63214 6.4087 2 8 2C9.5913 2 11.1174 2.63214 12.2426 3.75736C13.3679 4.88258 14 6.4087 14 8C14 9.5913 13.3679 11.1174 12.2426 12.2426C11.1174 13.3679 9.5913 14 8 14C6.4087 14 4.88258 13.3679 3.75736 12.2426C2.63214 11.1174 2 9.5913 2 8Z" fill="#FDBF26" stroke="#FDBF26" stroke-width="3"/>
</svg>
